# xmcd
#
# Track frame offsets: 
#        150
#        18996
#        28307
#        39530
#        42040
#        51729
#        56974
#        74161
#        94266
#        114465
#        134286
#        136361
#        151511
#        163031
#        171472
#        178998
#        190410
#        206941
#        220997
#        222572
#        237891
#        249651
#        262845
#        265143
#
# Disc length: 3988 seconds
#
# Revision: 0
# Processed by: cddbd v1.5.2PL0 Copyright (c) Steve Scherf et al.
# Submitted via: ExactAudioCopy v0.99pb3
#
DISCID=7f0f9218
DTITLE=Ross Johnson - Make It Stop! The Most Of Ross Johnson
DYEAR=2007
DGENRE=Blues
TTITLE0=Baron Of Love Pt.II
TTITLE1=Wet Bar
TTITLE2=Wetter And Hotter
TTITLE3=My Slobbering Decline
TTITLE4=Last Date
TTITLE5=Rockabilly Monkey-Faced Girl
TTITLE6=Naked Party
TTITLE7=It Never Happened
TTITLE8=Nudist Camp
TTITLE9=Mr. Blue (Cut Your Head On X-Mas)
TTITLE10=A Southern Sissy
TTITLE11=Theme From 'A Summer Place'
TTITLE12=Don't Let The Sun Catch You Crying
TTITLE13=When The Saints Go Marchin' In Dixie
TTITLE14=Keep On Dancing
TTITLE15=If You Ever Get It Once
TTITLE16=Senior Stroll
TTITLE17=Pretty Flamingo
TTITLE18=Shall We Pop-A-Top?
TTITLE19=You Talk I Listen (Goin' To The Get High Shack)
TTITLE20=Hash House Pallor
TTITLE21=Farmer John
TTITLE22=My Mission
TTITLE23=Signify
EXTD=
EXTT0=
EXTT1=
EXTT2=
EXTT3=
EXTT4=
EXTT5=
EXTT6=
EXTT7=
EXTT8=
EXTT9=
EXTT10=
EXTT11=
EXTT12=
EXTT13=
EXTT14=
EXTT15=
EXTT16=
EXTT17=
EXTT18=
EXTT19=
EXTT20=
EXTT21=
EXTT22=
EXTT23=
PLAYORDER=
